<?xml version="1.0" encoding="UTF-8"?> <svg xmlns="http://www.w3.org/2000/svg" xmlns:xlink="http://www.w3.org/1999/xlink" width="228px" height="51px" viewBox="0 0 228 51" version="1.1"><title>L&amp;F Logo</title><defs><polygon id="path-1" points="0 0 33.9918049 0 33.9918049 50.3547 0 50.3547"></polygon><polygon id="path-3" points="0 0 22.5155 0 22.5155 33.5384253 0 33.5384253"></polygon></defs><g id="------Symbols" stroke="none" stroke-width="1" fill="none" fill-rule="evenodd"><g id="L&amp;F-Logo"><polygon id="Fill-1" fill="#0061AD" points="52.9365 13.2422 52.9365 24.9972 58.8245 24.9972 58.8245 27.8882 49.0325 27.8882 49.0325 13.2422"></polygon><g id="Group-6" transform="translate(59.137500, 12.883500)" fill="#0061AD"><path d="M3.925,7.639 C3.925,10.658 5.317,12.451 7.281,12.451 C9.243,12.451 10.616,10.658 10.616,7.639 C10.616,4.643 9.222,2.849 7.281,2.849 C5.339,2.849 3.925,4.621 3.925,7.639 M14.54,7.681 C14.54,12.515 11.818,15.341 7.281,15.341 C2.722,15.341 7.10542736e-15,12.515 7.10542736e-15,7.681 C7.10542736e-15,2.849 2.744,0 7.281,0 C11.818,0 14.54,2.849 14.54,7.681" id="Fill-2"></path><path d="M19.3286,0.3587 L20.9746,10.4467 C20.9956,10.6367 21.0806,11.3957 21.2276,12.7677 C21.2696,11.8397 21.3546,11.1007 21.4616,10.4877 L23.1686,0.3587 L28.0876,0.3587 L29.9006,10.4467 C30.0076,10.9737 30.1126,11.7537 30.1966,12.7677 C30.2816,11.7537 30.3456,10.9947 30.4296,10.5307 L32.1386,0.3587 L35.7896,0.3587 L32.6246,15.0047 L27.6436,15.0047 L25.7446,4.5577 C25.6806,4.2417 25.5966,3.4397 25.5116,2.1307 C25.4276,3.4817 25.3646,4.2837 25.3216,4.5367 L23.5496,15.0047 L18.6116,15.0047 L15.4246,0.3587 L19.3286,0.3587 Z" id="Fill-4"></path></g><polygon id="Fill-7" fill="#0061AD" points="106.5317 13.2422 106.5317 15.9862 100.2637 15.9862 100.2637 18.9412 106.1727 18.9412 106.1727 21.7262 100.2637 21.7262 100.2637 25.0602 106.7637 25.0602 106.7637 27.8882 96.3597 27.8882 96.3597 13.2422"></polygon><path d="M117.146,16.6613 C117.146,15.8593 116.534,15.2893 115.499,15.2893 C114.508,15.2893 113.896,15.8593 113.896,16.5553 C113.896,17.1463 114.36,17.8643 115.33,18.6873 C116.534,18.0753 117.146,17.4213 117.146,16.6613 L117.146,16.6613 Z M113.051,23.5623 C113.051,24.7223 114.108,25.6933 115.373,25.6933 C116.217,25.6933 116.871,25.4403 117.504,24.9333 L114.212,21.6413 C113.432,22.2323 113.051,22.8233 113.051,23.5623 L113.051,23.5623 Z M119.615,22.9923 C120.353,22.1483 120.776,21.0933 120.817,19.9533 L123.899,19.9533 C123.814,22.0213 123.055,23.7723 121.682,25.0603 L124.511,27.8893 L120.417,27.8893 L119.424,26.8323 C118.243,27.7193 116.808,28.1623 115.099,28.1623 C111.658,28.1623 109.549,26.3263 109.549,23.5403 C109.549,21.9583 110.477,20.6703 112.313,19.7843 C111.152,18.6453 110.561,17.6313 110.561,16.4713 C110.561,14.3393 112.377,12.9043 115.499,12.9043 C118.581,12.9043 120.312,14.2973 120.312,16.4503 C120.312,18.0963 119.214,19.4673 117.04,20.3963 L119.615,22.9923 Z" id="Fill-8" fill="#0061AD"></path><polygon id="Fill-10" fill="#0061AD" points="136.3908 13.2422 136.3908 16.0272 130.6728 16.0272 130.6728 19.1512 136.1378 19.1512 136.1378 21.9372 130.6728 21.9372 130.6728 27.8882 126.7478 27.8882 126.7478 13.2422"></polygon><polygon id="Fill-11" fill="#0061AD" points="142.2144 13.2422 142.2144 24.9972 148.1024 24.9972 148.1024 27.8882 138.3104 27.8882 138.3104 13.2422"></polygon><polygon id="Fill-12" fill="#0061AD" points="159.8974 13.2422 159.8974 15.9862 153.6304 15.9862 153.6304 18.9412 159.5384 18.9412 159.5384 21.7262 153.6304 21.7262 153.6304 25.0602 160.1294 25.0602 160.1294 27.8882 149.7264 27.8882 149.7264 13.2422"></polygon><polygon id="Fill-13" fill="#0061AD" points="172.4101 13.2422 172.4101 16.1752 168.7801 16.1752 168.7801 27.8882 164.8771 27.8882 164.8771 16.1752 161.2461 16.1752 161.2461 13.2422"></polygon><path d="M185.6201,16.7453 C184.5441,16.1123 183.3831,15.7743 182.1171,15.7743 C179.1841,15.7743 177.3261,17.6103 177.3261,20.4803 C177.3261,23.3723 179.2461,25.2073 182.1801,25.2073 C183.3201,25.2073 184.5221,24.9333 185.7681,24.3643 L185.9991,27.6553 C184.6081,28.0363 183.2151,28.2253 181.7801,28.2253 C176.4411,28.2253 173.3381,25.3343 173.3381,20.4803 C173.3381,15.8593 176.4411,12.8833 181.4841,12.8833 C183.1721,12.8833 184.6921,13.1573 185.9581,13.6853 L185.6201,16.7453 Z" id="Fill-14" fill="#0061AD"></path><polygon id="Fill-16" fill="#0061AD" points="191.9712 13.2422 191.9712 18.8342 196.5292 18.8342 196.5292 13.2422 200.4332 13.2422 200.4332 27.8882 196.5292 27.8882 196.5292 21.7672 191.9712 21.7672 191.9712 27.8882 188.0672 27.8882 188.0672 13.2422"></polygon><polygon id="Fill-17" fill="#0061AD" points="213.2209 13.2422 213.2209 15.9862 206.9529 15.9862 206.9529 18.9412 212.8619 18.9412 212.8619 21.7262 206.9529 21.7262 206.9529 25.0602 213.4529 25.0602 213.4529 27.8882 203.0489 27.8882 203.0489 13.2422"></polygon><path d="M219.5506,19.5729 L220.9226,19.5729 C222.6106,19.5729 223.4556,18.9609 223.4556,17.7369 C223.4556,16.3869 222.5056,15.8169 220.5216,15.8169 L219.5506,15.8169 L219.5506,19.5729 Z M221.5566,13.2419 C225.3756,13.2419 227.2746,14.4449 227.2746,17.0619 C227.2746,18.9399 226.2616,20.2059 224.3836,20.6279 C225.5446,21.0509 225.8406,21.8939 226.2416,23.0339 L227.9926,27.9089 L223.9196,27.9089 L222.6326,23.8779 C222.1886,22.5059 221.5346,22.1689 220.1206,22.1689 L219.5506,22.1689 L219.5506,27.9089 L215.7316,27.9089 L215.7316,13.2419 L221.5566,13.2419 Z" id="Fill-18" fill="#0061AD"></path><polygon id="Fill-20" fill="#616872" points="63.3701 33.5425 63.9301 33.5425 63.9301 39.1515 67.0671 39.1515 67.0671 39.6525 63.3701 39.6525"></polygon><g id="Group-25" transform="translate(67.635300, 33.380100)" fill="#616872"><path d="M2.796,5.9415 C4.131,5.9415 5.023,4.9385 5.023,3.2225 C5.023,1.5045 4.131,0.5025 2.796,0.5025 C1.487,0.5025 0.578,1.5135 0.578,3.2225 C0.578,4.9385 1.47,5.9415 2.796,5.9415 M2.796,0.0005 C4.495,0.0005 5.601,1.2165 5.601,3.2225 C5.601,5.2275 4.495,6.4435 2.796,6.4435 C1.105,6.4435 0,5.2275 0,3.2225 C0,1.2165 1.105,0.0005 2.796,0.0005" id="Fill-21"></path><path d="M11.9575,4.276 C11.8635,5.627 10.9635,6.443 9.5185,6.443 C7.8945,6.443 6.8585,5.245 6.8585,3.205 C6.8585,1.182 7.9125,0 9.5355,0 C10.9295,0 11.8385,0.774 11.8985,1.947 L11.3455,1.947 C11.2515,1.056 10.5635,0.502 9.5355,0.502 C8.2355,0.502 7.4355,1.454 7.4355,3.196 C7.4355,4.955 8.2605,5.942 9.5525,5.942 C10.6405,5.942 11.3285,5.321 11.4055,4.276 L11.9575,4.276 Z" id="Fill-23"></path></g><polygon id="Fill-26" fill="#616872" points="81.0969 33.5425 81.6569 33.5425 81.6569 36.7805 84.8109 33.5425 85.5319 33.5425 83.0509 36.0745 85.8229 39.6525 85.1259 39.6525 82.6779 36.4485 81.6569 37.4935 81.6569 39.6525 81.0969 39.6525"></polygon><polygon id="Fill-27" fill="#616872" points="86.996 39.653 87.556 39.653 87.556 33.543 86.996 33.543"></polygon><polygon id="Fill-28" fill="#616872" points="89.3909 33.5425 90.0109 33.5425 93.4449 38.7865 93.4449 33.5425 94.0059 33.5425 94.0059 39.6525 93.3859 39.6525 89.9509 34.4095 89.9509 39.6525 89.3909 39.6525"></polygon><g id="Group-33" transform="translate(95.543600, 33.380500)" fill="#616872"><path d="M4.87,5.193 C4.496,5.976 3.715,6.443 2.737,6.443 C1.054,6.443 0,5.227 0,3.204 C0,1.181 1.096,0 2.77,0 C4.207,0 5.126,0.723 5.302,1.937 L4.726,1.937 C4.556,1.045 3.825,0.502 2.779,0.502 C1.385,0.502 0.578,1.445 0.578,3.196 C0.578,4.896 1.411,5.942 2.712,5.942 C4.054,5.942 4.845,5.099 4.845,3.664 L4.845,3.637 L2.831,3.637 L2.831,3.137 L5.38,3.137 L5.38,6.273 L4.929,6.273 L4.87,5.193 Z" id="Fill-29"></path><path d="M10.0113,4.42 C10.0113,5.381 10.6313,5.941 11.7193,5.941 C12.6883,5.941 13.2413,5.473 13.2413,4.734 C13.2413,3.944 12.8153,3.697 11.8203,3.442 L11.2433,3.298 C10.1213,3.009 9.5783,2.635 9.5783,1.64 C9.5783,0.671 10.3433,7.10542736e-15 11.5833,7.10542736e-15 C12.8673,7.10542736e-15 13.6233,0.689 13.6403,1.862 L13.0623,1.862 C13.0533,0.985 12.5093,0.502 11.5573,0.502 C10.6573,0.502 10.1553,0.927 10.1553,1.658 C10.1553,2.236 10.4703,2.525 11.1833,2.703 L11.8973,2.881 C13.2233,3.213 13.8193,3.663 13.8193,4.674 C13.8193,5.762 13.0203,6.443 11.7103,6.443 C10.2493,6.443 9.4333,5.729 9.4333,4.462 L9.4333,4.42 L10.0113,4.42 Z" id="Fill-31"></path></g><polygon id="Fill-34" fill="#616872" points="112.2687 36.9671 110.1097 33.5431 110.7567 33.5431 112.5497 36.4321 114.3417 33.5431 114.9887 33.5431 112.8287 36.9671 112.8287 39.6531 112.2687 39.6531"></polygon><path d="M116.3135,37.8005 C116.3135,38.7615 116.9335,39.3215 118.0215,39.3215 C118.9905,39.3215 119.5425,38.8535 119.5425,38.1145 C119.5425,37.3245 119.1185,37.0775 118.1235,36.8225 L117.5455,36.6785 C116.4245,36.3895 115.8805,36.0155 115.8805,35.0205 C115.8805,34.0515 116.6455,33.3805 117.8855,33.3805 C119.1695,33.3805 119.9255,34.0695 119.9435,35.2425 L119.3645,35.2425 C119.3565,34.3655 118.8125,33.8825 117.8605,33.8825 C116.9595,33.8825 116.4575,34.3075 116.4575,35.0385 C116.4575,35.6165 116.7735,35.9055 117.4855,36.0835 L118.1995,36.2615 C119.5255,36.5935 120.1225,37.0435 120.1225,38.0545 C120.1225,39.1425 119.3225,39.8235 118.0125,39.8235 C116.5515,39.8235 115.7345,39.1095 115.7345,37.8425 L115.7345,37.8005 L116.3135,37.8005 Z" id="Fill-35" fill="#616872"></path><polygon id="Fill-37" fill="#616872" points="122.909 34.0437 121.004 34.0437 121.004 33.5427 125.374 33.5427 125.374 34.0437 123.469 34.0437 123.469 39.6527 122.909 39.6527"></polygon><polygon id="Fill-38" fill="#616872" points="126.5539 33.5425 130.5579 33.5425 130.5579 34.0435 127.1139 34.0435 127.1139 36.2615 130.2589 36.2615 130.2589 36.7625 127.1139 36.7625 127.1139 39.1515 130.6589 39.1515 130.6589 39.6525 126.5539 39.6525"></polygon><polygon id="Fill-39" fill="#616872" points="132.1114 33.5425 132.9024 33.5425 134.9164 38.9215 136.8974 33.5425 137.6874 33.5425 137.6874 39.6525 137.1264 39.6525 137.1264 34.3235 135.1794 39.6525 134.6614 39.6525 132.6724 34.3235 132.6724 39.6525 132.1114 39.6525"></polygon><path d="M139.752,37.8005 C139.752,38.7615 140.371,39.3215 141.46,39.3215 C142.429,39.3215 142.981,38.8535 142.981,38.1145 C142.981,37.3245 142.556,37.0775 141.561,36.8225 L140.984,36.6785 C139.862,36.3895 139.318,36.0155 139.318,35.0205 C139.318,34.0515 140.083,33.3805 141.324,33.3805 C142.607,33.3805 143.363,34.0695 143.381,35.2425 L142.803,35.2425 C142.794,34.3655 142.25,33.8825 141.298,33.8825 C140.398,33.8825 139.896,34.3075 139.896,35.0385 C139.896,35.6165 140.211,35.9055 140.924,36.0835 L141.638,36.2615 C142.964,36.5935 143.56,37.0435 143.56,38.0545 C143.56,39.1425 142.761,39.8235 141.451,39.8235 C139.99,39.8235 139.174,39.1095 139.174,37.8425 L139.174,37.8005 L139.752,37.8005 Z" id="Fill-40" fill="#616872"></path><polygon id="Fill-42" fill="#616872" points="147.7318 33.5425 151.5988 33.5425 151.5988 34.0435 148.2918 34.0435 148.2918 36.2525 151.2918 36.2525 151.2918 36.7545 148.2918 36.7545 148.2918 39.6525 147.7318 39.6525"></polygon><g id="Group-47" transform="translate(152.720800, 33.380600)" fill="#616872"><path d="M2.795,5.941 C4.13,5.941 5.022,4.938 5.022,3.222 C5.022,1.504 4.13,0.502 2.795,0.502 C1.487,0.502 0.577,1.513 0.577,3.222 C0.577,4.938 1.469,5.941 2.795,5.941 M2.795,0 C4.494,0 5.6,1.216 5.6,3.222 C5.6,5.227 4.494,6.443 2.795,6.443 C1.104,6.443 0,5.227 0,3.222 C0,1.216 1.104,0 2.795,0" id="Fill-43"></path><path d="M9.3046,3.0341 C10.4106,3.0341 10.9116,2.6931 10.9116,1.8021 C10.9116,1.4021 10.7406,1.0711 10.4526,0.8761 C10.1556,0.6711 9.7726,0.6621 9.2716,0.6621 L9.0336,0.6621 L7.6816,0.6621 L7.6816,3.0341 L9.3046,3.0341 Z M7.1216,0.1611 L9.0246,0.1611 L9.1606,0.1611 C9.8066,0.1611 10.3166,0.1701 10.7406,0.4071 C11.2176,0.6801 11.4886,1.1721 11.4886,1.7841 C11.4886,2.5411 11.1406,3.0681 10.5036,3.2891 C11.1406,3.5021 11.2006,3.9271 11.2676,4.7091 L11.3446,5.6261 C11.3696,5.9251 11.4386,6.1021 11.5406,6.1871 L11.5406,6.2731 L10.9196,6.2731 C10.8526,6.1451 10.8096,5.9411 10.7846,5.6441 L10.7156,4.8361 C10.6396,3.7911 10.4776,3.5361 9.4666,3.5361 L7.6816,3.5361 L7.6816,6.2731 L7.1216,6.2731 L7.1216,0.1611 Z" id="Fill-45"></path></g><polygon id="Fill-48" fill="#616872" points="168.493 39.653 169.054 39.653 169.054 33.543 168.493 33.543"></polygon><polygon id="Fill-49" fill="#616872" points="170.8891 33.5425 171.5091 33.5425 174.9431 38.7865 174.9431 33.5425 175.5041 33.5425 175.5041 39.6525 174.8841 39.6525 171.4491 34.4095 171.4491 39.6525 170.8891 39.6525"></polygon><g id="Group-56" transform="translate(177.296900, 33.380500)" fill="#616872"><path d="M1.462,5.7714 L1.742,5.7714 C2.414,5.7714 2.924,5.7544 3.289,5.5414 C3.917,5.1684 4.216,4.4024 4.216,3.2214 C4.216,2.0834 3.917,1.3174 3.332,0.9354 C2.933,0.6724 2.396,0.6634 1.684,0.6634 L1.547,0.6634 L0.561,0.6634 L0.561,5.7714 L1.462,5.7714 Z M1.853,0.1624 C2.576,0.1624 3.161,0.1864 3.638,0.4924 C4.378,0.9604 4.793,1.8954 4.793,3.2044 C4.793,4.6154 4.343,5.5584 3.51,6.0094 C3.068,6.2474 2.473,6.2724 1.684,6.2724 L0,6.2724 L0,0.1624 L1.437,0.1624 L1.853,0.1624 Z" id="Fill-50"></path><path d="M6.8669,0.162 L6.8669,4.011 C6.8669,5.33 7.3599,5.942 8.6259,5.942 C9.8929,5.942 10.3949,5.33 10.3949,4.011 L10.3949,0.162 L10.9559,0.162 L10.9559,4.089 C10.9559,5.652 10.1649,6.443 8.6259,6.443 C7.0879,6.443 6.3059,5.652 6.3059,4.089 L6.3059,0.162 L6.8669,0.162 Z" id="Fill-52"></path><path d="M12.9765,4.42 C12.9765,5.381 13.5965,5.941 14.6845,5.941 C15.6535,5.941 16.2055,5.473 16.2055,4.734 C16.2055,3.944 15.7805,3.697 14.7855,3.442 L14.2085,3.298 C13.0865,3.009 12.5425,2.635 12.5425,1.64 C12.5425,0.671 13.3075,0 14.5475,0 C15.8315,0 16.5885,0.689 16.6055,1.862 L16.0275,1.862 C16.0185,0.985 15.4755,0.502 14.5225,0.502 C13.6225,0.502 13.1205,0.927 13.1205,1.658 C13.1205,2.236 13.4355,2.525 14.1485,2.703 L14.8625,2.881 C16.1885,3.213 16.7845,3.663 16.7845,4.674 C16.7845,5.762 15.9855,6.443 14.6755,6.443 C13.2145,6.443 12.3975,5.729 12.3975,4.462 L12.3975,4.42 L12.9765,4.42 Z" id="Fill-54"></path></g><polygon id="Fill-57" fill="#616872" points="196.8681 34.0437 194.9641 34.0437 194.9641 33.5427 199.3321 33.5427 199.3321 34.0437 197.4281 34.0437 197.4281 39.6527 196.8681 39.6527"></polygon><path d="M202.6973,36.4147 C203.8033,36.4147 204.3033,36.0737 204.3033,35.1827 C204.3033,34.7827 204.1333,34.4517 203.8453,34.2567 C203.5483,34.0517 203.1653,34.0427 202.6633,34.0427 L202.4253,34.0427 L201.0743,34.0427 L201.0743,36.4147 L202.6973,36.4147 Z M200.5143,33.5417 L202.4173,33.5417 L202.5533,33.5417 C203.1983,33.5417 203.7093,33.5507 204.1333,33.7877 C204.6103,34.0607 204.8813,34.5527 204.8813,35.1647 C204.8813,35.9217 204.5333,36.4487 203.8953,36.6697 C204.5333,36.8827 204.5933,37.3077 204.6603,38.0897 L204.7373,39.0067 C204.7623,39.3057 204.8313,39.4827 204.9333,39.5677 L204.9333,39.6537 L204.3123,39.6537 C204.2453,39.5257 204.2023,39.3217 204.1773,39.0247 L204.1083,38.2167 C204.0323,37.1717 203.8703,36.9167 202.8593,36.9167 L201.0743,36.9167 L201.0743,39.6537 L200.5143,39.6537 L200.5143,33.5417 Z" id="Fill-58" fill="#616872"></path><polygon id="Fill-60" fill="#616872" points="207.8556 36.9671 205.6966 33.5431 206.3436 33.5431 208.1366 36.4321 209.9286 33.5431 210.5756 33.5431 208.4156 36.9671 208.4156 39.6531 207.8556 39.6531"></polygon><path d="M24.1053,36.4544 L24.5513,35.6404 L24.1053,36.4544 Z" id="Stroke-61" stroke="#1D1D1B" stroke-width="0.095" stroke-linecap="round" stroke-linejoin="round"></path><path d="M26.3295,36.7281 L25.1155,36.6481 L25.3265,38.0391 L23.6655,41.1461 L25.3375,44.2721 L27.5335,44.8031 L27.9415,45.5641 L27.4355,47.4071 L27.8975,48.2691 L31.3745,50.3551 L33.9555,48.9101 L33.9915,44.8541 L33.4975,44.0101 L31.6625,43.4791 L31.2255,42.7351 L31.9205,40.5841 L28.5075,34.7601 L27.5955,34.3621 L26.3295,36.7281 Z M23.6655,41.1461 L25.1755,38.3211 L23.6655,41.1461 Z" id="Fill-62" fill="#0061AD"></path><g id="Group-69"><g id="Group-65" transform="translate(12.250300, 0.000000)"><mask id="mask-2" fill="white"><use xlink:href="#path-1"></use></mask><g id="Clip-64"></g><path d="M11.864,36.4447 L12.291,35.6487 L13.526,35.7307 L14.919,33.1287 L16.433,33.7907 L20.24,28.5917 L21.724,29.4617 C22.337,29.8227 23.115,29.7337 23.631,29.2437 L27.418,25.6587 C27.592,25.4927 27.727,25.2917 27.812,25.0677 L33.86,9.2097 C34.214,8.2837 33.834,7.2397 32.971,6.7557 L21.367,0.2557 C20.503,-0.2293 19.414,-0.0073 18.81,0.7767 L8.444,14.2177 C8.297,14.4067 8.196,14.6277 8.146,14.8617 L7.065,19.9637 C6.918,20.6587 7.249,21.3687 7.876,21.7047 L9.394,22.5137 L6.948,28.4777 L8.304,29.4237 L6.813,31.9687 L7.526,32.9787 L7.069,33.7607 L5.743,34.3177 L2.072,40.5837 L2.767,42.7347 L2.33,43.4787 L0.494,44.0107 L0,44.8537 L0.037,48.9097 L2.618,50.3547 L6.095,48.2687 L6.557,47.4067 L6.051,45.5637 L6.458,44.8017 L8.655,44.2717 L12.081,37.8677 L11.864,36.4447 Z M22.012,8.4697 C22.012,7.1577 23.075,6.0957 24.387,6.0957 C25.699,6.0957 26.763,7.1577 26.763,8.4697 C26.763,9.7807 25.699,10.8437 24.387,10.8437 C23.075,10.8437 22.012,9.7807 22.012,8.4697 L22.012,8.4697 Z" id="Fill-63" fill="#8C8B90" mask="url(#mask-2)"></path></g><g id="Group-68" transform="translate(0.000000, 0.000075)"><mask id="mask-4" fill="white"><use xlink:href="#path-3"></use></mask><g id="Clip-67"></g><path d="M22.5155,10.2854253 L15.1825,0.777425333 C14.5775,-0.00657466746 13.4895,-0.229574667 12.6265,0.255425333 L1.0205,6.75542533 C0.1565,7.23942533 -0.2215,8.28442533 0.1315,9.20942533 L6.1795,25.0674253 C6.2655,25.2924253 6.3995,25.4934253 6.5745,25.6584253 L10.3605,29.2444253 C10.8775,29.7334253 11.6545,29.8214253 12.2685,29.4614253 L13.7515,28.5914253 L17.3735,33.5384253 L18.6255,33.0124253 L17.9225,32.0174253 L19.2795,29.7014253 L18.0205,28.8244253 L20.4275,22.9524253 L19.6755,22.5504253 C18.6705,22.0144253 18.1425,20.8784253 18.3785,19.7654253 L19.4585,14.6624253 C19.5385,14.2884253 19.7015,13.9354253 19.9355,13.6324253 L22.5155,10.2854253 L19.9355,13.6324253 M7.2305,8.46942533 C7.2305,7.15742533 8.2935,6.09542533 9.6045,6.09542533 C10.9165,6.09542533 11.9795,7.15742533 11.9795,8.46942533 C11.9795,9.78042533 10.9165,10.8444253 9.6045,10.8444253 C8.2935,10.8444253 7.2305,9.78042533 7.2305,8.46942533" id="Fill-66" fill="#0061AD" mask="url(#mask-4)"></path></g></g></g></g></svg> 